<svg width="201" height="59" viewBox="0 0 201 59" fill="none" xmlns="http://www.w3.org/2000/svg">
<path d="M199.883 51.3701C199.883 54.4645 197.325 56.9711 194.16 56.9711H6.84791C3.68447 56.9711 1.1167 54.4645 1.1167 51.3701V6.70389C1.1167 3.61091 3.68447 1.09558 6.84791 1.09558H194.158C197.325 1.09558 199.882 3.61091 199.882 6.70389L199.883 51.3701Z" fill="black"/>
<path d="M193.556 1.16313C197.002 1.16313 199.807 3.89771 199.807 7.25832V50.8083C199.807 54.1689 197.002 56.9035 193.556 56.9035H7.44444C3.99767 56.9035 1.19297 54.1689 1.19297 50.8083V7.25832C1.19297 3.89771 3.99767 1.16313 7.44444 1.16313H193.556ZM193.556 -1.39946e-05H7.44444C3.35186 -1.39946e-05 0 3.26805 0 7.25832V50.8083C0 54.7986 3.35186 58.0667 7.44444 58.0667H193.556C197.648 58.0667 201 54.7986 201 50.8083V7.25832C201 3.26805 197.648 -1.39946e-05 193.556 -1.39946e-05Z" fill="#A6A6A6"/>
<path d="M44.8573 28.7197C44.8141 24.0409 48.7865 21.7647 48.9681 21.6588C46.7184 18.4607 43.2314 18.0238 42.0061 17.9889C39.0774 17.6884 36.2366 19.6976 34.7448 19.6976C33.2231 19.6976 30.9258 18.018 28.4497 18.0673C25.2635 18.1152 22.2828 19.9139 20.648 22.7069C17.2741 28.4017 19.7904 36.7706 23.0227 41.3738C24.6397 43.6283 26.5291 46.1455 29.0021 46.0569C31.4216 45.9597 32.3253 44.553 35.245 44.553C38.1379 44.553 38.9866 46.0569 41.5088 46.0003C44.1054 45.9597 45.7402 43.7357 47.3006 41.4609C49.1691 38.877 49.9195 36.3322 49.9493 36.2016C49.8883 36.1812 44.9064 34.3275 44.8573 28.7197Z" fill="white"/>
<path d="M40.0929 14.9608C41.3941 13.3741 42.2845 11.2155 42.0373 9.0249C40.1539 9.1062 37.7985 10.2951 36.4421 11.8469C35.2421 13.2144 34.1701 15.4558 34.447 17.5636C36.5627 17.7175 38.735 16.5228 40.0929 14.9608Z" fill="white"/>
<path d="M73.03 14.5297C73.03 16.2383 72.5044 17.5245 71.4547 18.3883C70.4825 19.1852 69.1008 19.5844 67.3112 19.5844C66.4238 19.5844 65.6644 19.5467 65.0287 19.4712V10.1355C65.858 10.0049 66.7513 9.93811 67.7161 9.93811C69.4209 9.93811 70.7058 10.2996 71.5724 11.0225C72.5431 11.8398 73.03 13.0084 73.03 14.5297ZM71.3848 14.5718C71.3848 13.4642 71.084 12.615 70.4825 12.0227C69.881 11.4319 69.0025 11.1357 67.8457 11.1357C67.3543 11.1357 66.936 11.1677 66.589 11.2344V18.3316C66.7811 18.3607 67.1325 18.3737 67.6432 18.3737C68.8373 18.3737 69.7589 18.05 70.4081 17.4026C71.0572 16.7551 71.3848 15.8116 71.3848 14.5718Z" fill="white"/>
<path d="M81.7534 16.0221C81.7534 17.0746 81.4452 17.9369 80.8288 18.6134C80.1826 19.3087 79.3265 19.6557 78.2574 19.6557C77.2271 19.6557 76.4068 19.3232 75.7948 18.6555C75.1844 17.9892 74.8792 17.1486 74.8792 16.1354C74.8792 15.0757 75.1933 14.2061 75.8246 13.5311C76.4559 12.8561 77.3046 12.5178 78.3736 12.5178C79.4039 12.5178 80.2317 12.8503 80.8585 13.5166C81.4541 14.164 81.7534 15.0002 81.7534 16.0221ZM80.1349 16.0715C80.1349 15.44 79.995 14.8986 79.7166 14.4471C79.389 13.9013 78.923 13.6283 78.317 13.6283C77.6902 13.6283 77.2137 13.9013 76.8862 14.4471C76.6063 14.8986 76.4678 15.4487 76.4678 16.0991C76.4678 16.7306 76.6078 17.272 76.8862 17.7235C77.2242 18.2693 77.6946 18.5422 78.3021 18.5422C78.8977 18.5422 79.3652 18.265 79.7017 17.709C79.9905 17.2488 80.1349 16.703 80.1349 16.0715Z" fill="white"/>
<path d="M93.4501 12.6571L91.254 19.5003H89.8247L88.915 16.5287C88.6842 15.7869 88.4966 15.0495 88.3507 14.3178H88.3224C88.1869 15.0698 87.9993 15.8058 87.7581 16.5287L86.7918 19.5003H85.3461L83.281 12.6571H84.8845L85.6781 15.9103C85.8702 16.6797 86.028 17.4128 86.1546 18.1067H86.1828C86.299 17.5347 86.491 16.806 86.762 15.9248L87.7581 12.6586H89.0296L89.984 15.8551C90.2148 16.6347 90.4024 17.3852 90.5468 18.1081H90.59C90.6957 17.4041 90.855 16.6535 91.0664 15.8551L91.918 12.6586H93.4501V12.6571Z" fill="white"/>
<path d="M101.539 19.5003H99.9788V15.5808C99.9788 14.373 99.5083 13.7691 98.5644 13.7691C98.1013 13.7691 97.7276 13.9346 97.4373 14.267C97.1499 14.5995 97.004 14.9914 97.004 15.44V19.4989H95.4437V14.6125C95.4437 14.0115 95.4243 13.3597 95.3871 12.6542H96.7583L96.8313 13.7241H96.8745C97.0561 13.3917 97.3271 13.1173 97.6829 12.8981C98.1058 12.6426 98.5793 12.5134 99.0974 12.5134C99.7525 12.5134 100.297 12.7196 100.731 13.1333C101.27 13.6399 101.539 14.3962 101.539 15.4008V19.5003Z" fill="white"/>
<path d="M105.842 19.5003H104.283V9.51721H105.842V19.5003Z" fill="white"/>
<path d="M115.029 16.0221C115.029 17.0746 114.72 17.9369 114.104 18.6134C113.458 19.3087 112.6 19.6557 111.533 19.6557C110.501 19.6557 109.68 19.3232 109.07 18.6555C108.46 17.9892 108.154 17.1486 108.154 16.1354C108.154 15.0757 108.468 14.2061 109.1 13.5311C109.731 12.8561 110.58 12.5178 111.647 12.5178C112.679 12.5178 113.505 12.8503 114.134 13.5166C114.729 14.164 115.029 15.0002 115.029 16.0221ZM113.409 16.0715C113.409 15.44 113.269 14.8986 112.99 14.4471C112.664 13.9013 112.197 13.6283 111.592 13.6283C110.964 13.6283 110.487 13.9013 110.161 14.4471C109.881 14.8986 109.743 15.4487 109.743 16.0991C109.743 16.7306 109.883 17.272 110.161 17.7235C110.499 18.2693 110.97 18.5422 111.577 18.5422C112.173 18.5422 112.639 18.265 112.975 17.709C113.266 17.2488 113.409 16.703 113.409 16.0715Z" fill="white"/>
<path d="M122.58 19.5003H121.179L121.063 18.7121H121.02C120.54 19.3407 119.857 19.6557 118.97 19.6557C118.307 19.6557 117.771 19.4481 117.368 19.0358C117.001 18.6613 116.818 18.1953 116.818 17.6422C116.818 16.806 117.175 16.1688 117.895 15.7275C118.612 15.2861 119.622 15.0699 120.921 15.08V14.9523C120.921 14.0508 120.436 13.6008 119.464 13.6008C118.772 13.6008 118.161 13.7706 117.634 14.1074L117.317 13.1086C117.969 12.7152 118.775 12.5178 119.724 12.5178C121.559 12.5178 122.479 13.4614 122.479 15.3486V17.8687C122.479 18.5524 122.513 19.0968 122.58 19.5003ZM120.96 17.1486V16.0933C119.239 16.0642 118.378 16.5244 118.378 17.4724C118.378 17.8295 118.477 18.0966 118.678 18.2751C118.879 18.4537 119.135 18.5422 119.44 18.5422C119.782 18.5422 120.103 18.4363 120.394 18.2258C120.688 18.0138 120.868 17.7453 120.935 17.4157C120.951 17.3417 120.96 17.2517 120.96 17.1486Z" fill="white"/>
<path d="M131.446 19.5003H130.062L129.989 18.4014H129.946C129.503 19.2376 128.75 19.6557 127.691 19.6557C126.846 19.6557 126.142 19.3319 125.583 18.6845C125.025 18.037 124.746 17.1965 124.746 16.1644C124.746 15.0568 125.049 14.1596 125.656 13.4745C126.244 12.8357 126.965 12.5164 127.822 12.5164C128.765 12.5164 129.425 12.8256 129.8 13.4454H129.83V9.51721H131.391V17.6567C131.391 18.323 131.409 18.9371 131.446 19.5003ZM129.83 16.6144V15.4734C129.83 15.276 129.815 15.1163 129.786 14.9944C129.698 14.6285 129.509 14.3208 129.222 14.0725C128.932 13.8243 128.582 13.6995 128.178 13.6995C127.596 13.6995 127.141 13.9245 126.806 14.3759C126.474 14.8274 126.305 15.4037 126.305 16.1078C126.305 16.7843 126.465 17.333 126.785 17.7554C127.123 18.2054 127.578 18.4304 128.149 18.4304C128.661 18.4304 129.07 18.2432 129.381 17.8672C129.682 17.5202 129.83 17.1022 129.83 16.6144Z" fill="white"/>
<path d="M144.791 16.0221C144.791 17.0746 144.483 17.9369 143.867 18.6134C143.221 19.3087 142.366 19.6557 141.296 19.6557C140.267 19.6557 139.446 19.3232 138.833 18.6555C138.222 17.9892 137.917 17.1486 137.917 16.1354C137.917 15.0757 138.231 14.2061 138.863 13.5311C139.494 12.8561 140.343 12.5178 141.413 12.5178C142.442 12.5178 143.271 12.8503 143.897 13.5166C144.492 14.164 144.791 15.0002 144.791 16.0221ZM143.175 16.0715C143.175 15.44 143.035 14.8986 142.756 14.4471C142.427 13.9013 141.963 13.6283 141.355 13.6283C140.73 13.6283 140.253 13.9013 139.924 14.4471C139.644 14.8986 139.506 15.4487 139.506 16.0991C139.506 16.7306 139.646 17.272 139.924 17.7235C140.262 18.2693 140.733 18.5422 141.34 18.5422C141.936 18.5422 142.405 18.265 142.741 17.709C143.029 17.2488 143.175 16.703 143.175 16.0715Z" fill="white"/>
<path d="M153.181 19.5003H151.622V15.5808C151.622 14.373 151.152 13.7691 150.207 13.7691C149.744 13.7691 149.37 13.9346 149.081 14.267C148.792 14.5995 148.648 14.9914 148.648 15.44V19.4989H147.086V14.6125C147.086 14.0115 147.068 13.3597 147.031 12.6542H148.401L148.473 13.7241H148.517C148.7 13.3917 148.971 13.1173 149.325 12.8981C149.749 12.6426 150.221 12.5134 150.741 12.5134C151.395 12.5134 151.94 12.7196 152.373 13.1333C152.913 13.6399 153.181 14.3962 153.181 15.4008V19.5003Z" fill="white"/>
<path d="M163.682 13.7967H161.964V17.121C161.964 17.9659 162.269 18.3883 162.874 18.3883C163.154 18.3883 163.386 18.3651 163.569 18.3172L163.609 19.4713C163.301 19.5845 162.896 19.6411 162.398 19.6411C161.781 19.6411 161.302 19.4582 160.955 19.0924C160.606 18.7266 160.434 18.111 160.434 17.2473V13.7967H159.408V12.6571H160.434V11.4029L161.963 10.9529V12.6557H163.681V13.7967H163.682Z" fill="white"/>
<path d="M171.943 19.5003H170.381V15.6099C170.381 14.3832 169.91 13.7691 168.968 13.7691C168.244 13.7691 167.75 14.1248 167.479 14.8361C167.433 14.9856 167.406 15.1686 167.406 15.3834V19.4989H165.847V9.51721H167.406V13.6414H167.436C167.927 12.8909 168.631 12.5164 169.544 12.5164C170.19 12.5164 170.725 12.7225 171.149 13.1362C171.678 13.6516 171.943 14.418 171.943 15.4313V19.5003Z" fill="white"/>
<path d="M180.464 15.755C180.464 16.028 180.443 16.2573 180.406 16.4446H175.726C175.747 17.1211 175.97 17.6364 176.403 17.9935C176.8 18.3129 177.31 18.4726 177.936 18.4726C178.628 18.4726 179.259 18.3651 179.828 18.1488L180.072 19.2057C179.407 19.4873 178.623 19.6281 177.717 19.6281C176.63 19.6281 175.774 19.316 175.154 18.6918C174.532 18.0675 174.224 17.2299 174.224 16.1789C174.224 15.1468 174.511 14.2874 175.09 13.6022C175.695 12.8706 176.512 12.5048 177.544 12.5048C178.553 12.5048 179.32 12.8706 179.838 13.6022C180.257 14.1829 180.464 14.9015 180.464 15.755ZM178.975 15.3616C178.987 14.9102 178.884 14.5211 178.673 14.193C178.402 13.7706 177.989 13.5587 177.431 13.5587C176.922 13.5587 176.506 13.7648 176.189 14.1785C175.93 14.5081 175.777 14.9015 175.726 15.3616H178.975Z" fill="white"/>
<path d="M79.8715 45.7332H76.4902L74.638 40.0586H68.2001L66.4357 45.7332H63.1438L69.5222 26.4144H73.4618L79.8715 45.7332ZM74.0797 37.6779L72.4047 32.6334C72.2275 32.118 71.8955 30.9044 71.4056 28.994H71.3461C71.151 29.8157 70.8369 31.0293 70.4051 32.6334L68.7599 37.6779H74.0797Z" fill="white"/>
<path d="M96.2746 38.5969C96.2746 40.966 95.618 42.8386 94.3048 44.2134C93.1285 45.4371 91.6679 46.0483 89.9245 46.0483C88.0425 46.0483 86.6906 45.3892 85.8672 44.0711H85.8077V51.4093H82.6334V36.3889C82.6334 34.8995 82.5932 33.3709 82.5157 31.8031H85.3074L85.4846 34.0111H85.5441C86.6027 32.3474 88.2093 31.5171 90.3652 31.5171C92.0506 31.5171 93.4576 32.166 94.5832 33.4652C95.7118 34.7659 96.2746 36.476 96.2746 38.5969ZM93.0407 38.7101C93.0407 37.3542 92.728 36.2365 92.0997 35.3567C91.4133 34.4393 90.4917 33.9806 89.3363 33.9806C88.5532 33.9806 87.8415 34.2361 87.2057 34.7398C86.5685 35.2479 86.1516 35.9113 85.9566 36.7329C85.8583 37.1162 85.8092 37.4297 85.8092 37.6765V39.9992C85.8092 41.0124 86.1278 41.8675 86.765 42.5657C87.4023 43.264 88.2301 43.6124 89.2485 43.6124C90.4441 43.6124 91.3746 43.1624 92.0402 42.2652C92.7072 41.3666 93.0407 40.1821 93.0407 38.7101Z" fill="white"/>
<path d="M112.707 38.5969C112.707 40.966 112.051 42.8386 110.736 44.2134C109.561 45.4371 108.101 46.0483 106.357 46.0483C104.475 46.0483 103.123 45.3892 102.301 44.0711H102.242V51.4093H99.0676V36.3889C99.0676 34.8995 99.0274 33.3709 98.95 31.8031H101.742L101.919 34.0111H101.978C103.035 32.3474 104.642 31.5171 106.799 31.5171C108.483 31.5171 109.89 32.166 111.019 33.4652C112.143 34.7659 112.707 36.476 112.707 38.5969ZM109.473 38.7101C109.473 37.3542 109.159 36.2365 108.531 35.3567C107.845 34.4393 106.926 33.9806 105.769 33.9806C104.984 33.9806 104.274 34.2361 103.637 34.7398C103 35.2479 102.584 35.9113 102.389 36.7329C102.293 37.1162 102.242 37.4297 102.242 37.6765V39.9992C102.242 41.0124 102.561 41.8675 103.195 42.5657C103.832 43.2625 104.66 43.6124 105.681 43.6124C106.877 43.6124 107.807 43.1624 108.473 42.2652C109.14 41.3666 109.473 40.1821 109.473 38.7101Z" fill="white"/>
<path d="M131.08 40.3156C131.08 41.9589 130.495 43.2959 129.32 44.328C128.03 45.4559 126.232 46.0192 123.923 46.0192C121.791 46.0192 120.082 45.6185 118.788 44.8158L119.523 42.2361C120.917 43.0578 122.446 43.4701 124.112 43.4701C125.308 43.4701 126.238 43.2059 126.907 42.6803C127.572 42.1548 127.904 41.4493 127.904 40.5696C127.904 39.7857 127.63 39.1252 127.081 38.5896C126.535 38.0539 125.622 37.556 124.347 37.0958C120.878 35.8343 119.145 33.9863 119.145 31.5562C119.145 29.9681 119.753 28.666 120.969 27.6527C122.181 26.638 123.798 26.1313 125.82 26.1313C127.623 26.1313 129.121 26.4376 130.316 27.0488L129.523 29.5718C128.406 28.9795 127.144 28.6834 125.731 28.6834C124.614 28.6834 123.742 28.9519 123.116 29.4862C122.588 29.9637 122.323 30.5459 122.323 31.2354C122.323 31.999 122.625 32.6305 123.232 33.1269C123.761 33.5857 124.721 34.0821 126.115 34.6178C127.82 35.287 129.072 36.0695 129.877 36.9666C130.68 37.8608 131.08 38.9801 131.08 40.3156Z" fill="white"/>
<path d="M141.575 34.1258H138.077V40.8891C138.077 42.6093 138.693 43.4687 139.929 43.4687C140.496 43.4687 140.966 43.4208 141.339 43.325L141.427 45.6752C140.801 45.9031 139.978 46.0178 138.958 46.0178C137.704 46.0178 136.725 45.6447 136.017 44.9C135.313 44.1539 134.959 42.9025 134.959 41.1446V34.1229H132.874V31.8002H134.959V29.2496L138.077 28.3322V31.8002H141.575V34.1258Z" fill="white"/>
<path d="M157.362 38.6535C157.362 40.7947 156.734 42.5527 155.48 43.9274C154.165 45.3428 152.42 46.0483 150.245 46.0483C148.149 46.0483 146.48 45.3704 145.235 44.0145C143.99 42.6586 143.368 40.9471 143.368 38.8843C143.368 36.7257 144.008 34.9576 145.293 33.5828C146.575 32.2066 148.305 31.5186 150.48 31.5186C152.577 31.5186 154.264 32.1965 155.537 33.5538C156.755 34.8705 157.362 36.5704 157.362 38.6535ZM154.069 38.7537C154.069 37.4689 153.787 36.3671 153.217 35.4482C152.552 34.3362 151.6 33.7817 150.367 33.7817C149.091 33.7817 148.122 34.3377 147.457 35.4482C146.886 36.3686 146.605 37.4878 146.605 38.8117C146.605 40.0965 146.886 41.1983 147.457 42.1157C148.143 43.2277 149.102 43.7822 150.339 43.7822C151.551 43.7822 152.502 43.2161 153.189 42.0867C153.774 41.1504 154.069 40.0369 154.069 38.7537Z" fill="white"/>
<path d="M167.68 34.5249C167.366 34.4683 167.031 34.4393 166.68 34.4393C165.563 34.4393 164.699 34.8501 164.092 35.6732C163.563 36.399 163.298 37.3165 163.298 38.4241V45.7333H160.125L160.155 36.19C160.155 34.5845 160.115 33.1226 160.036 31.8045H162.801L162.917 34.4698H163.005C163.34 33.5538 163.869 32.8163 164.592 32.2632C165.299 31.7653 166.063 31.5171 166.887 31.5171C167.18 31.5171 167.445 31.5374 167.68 31.5737V34.5249Z" fill="white"/>
<path d="M181.877 38.109C181.877 38.6635 181.839 39.131 181.76 39.5128H172.237C172.275 40.8889 172.735 41.9414 173.619 42.6672C174.422 43.3161 175.459 43.6413 176.734 43.6413C178.144 43.6413 179.43 43.4221 180.587 42.9822L181.084 45.1307C179.733 45.7056 178.136 45.9915 176.295 45.9915C174.079 45.9915 172.34 45.3557 171.075 44.0855C169.812 42.8153 169.179 41.1096 169.179 38.9698C169.179 36.8693 169.767 35.12 170.945 33.725C172.178 32.2355 173.844 31.4908 175.94 31.4908C177.999 31.4908 179.558 32.2355 180.617 33.725C181.455 34.9081 181.877 36.3713 181.877 38.109ZM178.85 37.3062C178.87 36.3888 178.664 35.5962 178.233 34.9269C177.684 34.0661 176.84 33.6364 175.704 33.6364C174.666 33.6364 173.822 34.0559 173.177 34.8979C172.648 35.5671 172.334 36.3699 172.237 37.3048H178.85V37.3062Z" fill="white"/>
</svg>
