<svg width="200" height="58" viewBox="0 0 200 58" fill="none" xmlns="http://www.w3.org/2000/svg">
<path d="M192.593 57.7778H7.40741C3.33519 57.7778 0 54.526 0 50.5556V7.22228C0 3.25186 3.33519 5.53131e-05 7.40741 5.53131e-05H192.593C196.665 5.53131e-05 200 3.25186 200 7.22228V50.5556C200 54.526 196.665 57.7778 192.593 57.7778Z" fill="black"/>
<path d="M192.593 1.15741C196.022 1.15741 198.813 3.87839 198.813 7.22228V50.5556C198.813 53.8995 196.022 56.6205 192.593 56.6205H7.40741C3.97778 56.6205 1.18704 53.8995 1.18704 50.5556V7.22228C1.18704 3.87839 3.97778 1.15741 7.40741 1.15741H192.593ZM192.593 5.53131e-05H7.40741C3.33519 5.53131e-05 0 3.25186 0 7.22228V50.5556C0 54.526 3.33519 57.7778 7.40741 57.7778H192.593C196.665 57.7778 200 54.526 200 50.5556V7.22228C200 3.25186 196.665 5.53131e-05 192.593 5.53131e-05Z" fill="#A6A6A6"/>
<path d="M15.4593 10.8894C15.0241 11.3336 14.7722 12.0251 14.7722 12.9206V44.8645C14.7722 45.7601 15.0241 46.4516 15.4593 46.8958L15.5667 46.9933L33.9259 29.1002V28.6777L15.5667 10.7847L15.4593 10.8894Z" fill="url(#paint0_linear_19_3598)"/>
<path d="M40.0389 35.0676L33.9259 29.1003V28.6778L40.0463 22.7104L40.1833 22.788L47.4315 26.809C49.5 27.9501 49.5 29.8279 47.4315 30.9762L40.1833 34.99L40.0389 35.0676V35.0676Z" fill="url(#paint1_linear_19_3598)"/>
<path d="M40.1833 34.99L33.9259 28.889L15.4592 46.8958C16.1463 47.6 17.2666 47.6848 18.5407 46.9807L40.1833 34.99" fill="url(#paint2_linear_19_3598)"/>
<path d="M40.1833 22.7881L18.5407 10.7974C17.2666 10.1004 16.1463 10.1853 15.4592 10.8895L33.9259 28.889L40.1833 22.7881Z" fill="url(#paint3_linear_19_3598)"/>
<path d="M70.2481 14.7966C70.2481 16.0027 69.8778 16.9686 69.1481 17.6891C68.3092 18.5431 67.2166 18.9728 65.8778 18.9728C64.5981 18.9728 63.5055 18.5359 62.6092 17.6746C61.7111 16.8007 61.2629 15.7282 61.2629 14.4445C61.2629 13.1607 61.7111 12.0882 62.6092 11.2216C63.5055 10.3531 64.5981 9.91614 65.8778 9.91614C66.5148 9.91614 67.1222 10.0443 67.7018 10.2827C68.2796 10.5228 68.75 10.8478 69.0907 11.2486L68.3166 12.0106C67.7222 11.3263 66.9129 10.9886 65.8778 10.9886C64.9444 10.9886 64.1352 11.3064 63.4481 11.9474C62.7685 12.5902 62.4278 13.4225 62.4278 14.4445C62.4278 15.4664 62.7685 16.306 63.4481 16.9488C64.1352 17.5825 64.9444 17.9075 65.8778 17.9075C66.8685 17.9075 67.7018 17.5825 68.3592 16.9416C68.7926 16.5172 69.0389 15.9322 69.1037 15.1847H65.8778V14.1411H70.1815C70.2333 14.3668 70.2481 14.5853 70.2481 14.7966V14.7966Z" fill="white" stroke="white" stroke-width="0.16" stroke-miterlimit="10"/>
<path d="M77.076 11.1782H73.0334V13.9227H76.6778V14.9663H73.0334V17.7107H77.076V18.7742H71.8889V10.1147H77.076V11.1782Z" fill="white" stroke="white" stroke-width="0.16" stroke-miterlimit="10"/>
<path d="M81.8943 18.7742H80.7499V11.1782H78.2703V10.1147H84.3758V11.1782H81.8943V18.7742V18.7742Z" fill="white" stroke="white" stroke-width="0.16" stroke-miterlimit="10"/>
<path d="M88.7944 18.7742V10.1147H89.937V18.7742H88.7944Z" fill="white" stroke="white" stroke-width="0.16" stroke-miterlimit="10"/>
<path d="M95.0017 18.7742H93.8666V11.1782H91.3777V10.1147H97.4906V11.1782H95.0017V18.7742Z" fill="white" stroke="white" stroke-width="0.16" stroke-miterlimit="10"/>
<path d="M109.05 17.6602C108.174 18.5359 107.089 18.9728 105.794 18.9728C104.493 18.9728 103.407 18.5359 102.531 17.6602C101.657 16.7863 101.222 15.7138 101.222 14.4445C101.222 13.1752 101.657 12.1027 102.531 11.2288C103.407 10.3531 104.493 9.91614 105.794 9.91614C107.081 9.91614 108.167 10.3531 109.043 11.236C109.924 12.1171 110.359 13.1824 110.359 14.4445C110.359 15.7138 109.924 16.7863 109.05 17.6602ZM103.378 16.9343C104.037 17.5825 104.839 17.9075 105.794 17.9075C106.743 17.9075 107.552 17.5825 108.204 16.9343C108.861 16.2861 109.194 15.4538 109.194 14.4445C109.194 13.4352 108.861 12.6028 108.204 11.9546C107.552 11.3064 106.743 10.9814 105.794 10.9814C104.839 10.9814 104.037 11.3064 103.378 11.9546C102.72 12.6028 102.387 13.4352 102.387 14.4445C102.387 15.4538 102.72 16.2861 103.378 16.9343V16.9343Z" fill="white" stroke="white" stroke-width="0.16" stroke-miterlimit="10"/>
<path d="M111.965 18.7742V10.1147H113.354L117.672 16.8495H117.722L117.672 15.1847V10.1147H118.815V18.7742H117.622L113.1 11.7072H113.05L113.1 13.3792V18.7742H111.965V18.7742Z" fill="white" stroke="white" stroke-width="0.16" stroke-miterlimit="10"/>
<path d="M100.941 31.4204C97.4611 31.4204 94.6186 34.0023 94.6186 37.5647C94.6186 41.0981 97.4611 43.7072 100.941 43.7072C104.428 43.7072 107.27 41.0981 107.27 37.5647C107.27 34.0023 104.428 31.4204 100.941 31.4204ZM100.941 41.2877C99.0315 41.2877 97.3889 39.7512 97.3889 37.5647C97.3889 35.3493 99.0315 33.8398 100.941 33.8398C102.85 33.8398 104.5 35.3493 104.5 37.5647C104.5 39.7512 102.85 41.2877 100.941 41.2877V41.2877ZM87.1463 31.4204C83.6593 31.4204 80.8241 34.0023 80.8241 37.5647C80.8241 41.0981 83.6593 43.7072 87.1463 43.7072C90.6315 43.7072 93.4686 41.0981 93.4686 37.5647C93.4686 34.0023 90.6315 31.4204 87.1463 31.4204ZM87.1463 41.2877C85.2352 41.2877 83.5871 39.7512 83.5871 37.5647C83.5871 35.3493 85.2352 33.8398 87.1463 33.8398C89.0556 33.8398 90.6982 35.3493 90.6982 37.5647C90.6982 39.7512 89.0556 41.2877 87.1463 41.2877ZM70.7315 33.3036V35.9144H77.126C76.9389 37.3733 76.4389 38.4458 75.6723 39.1933C74.7389 40.0961 73.2852 41.0981 70.7315 41.0981C66.7963 41.0981 63.7149 38.0016 63.7149 34.1648C63.7149 30.328 66.7963 27.2315 70.7315 27.2315C72.8593 27.2315 74.4075 28.0422 75.55 29.093L77.4371 27.2531C75.8389 25.7654 73.713 24.6225 70.7315 24.6225C65.3352 24.6225 60.8 28.9034 60.8 34.1648C60.8 39.4262 65.3352 43.7072 70.7315 43.7072C73.6482 43.7072 75.8389 42.7755 77.5612 41.0277C79.326 39.307 79.876 36.8876 79.876 34.934C79.876 34.3273 79.8241 33.7694 79.7315 33.3036H70.7315ZM137.854 35.3276C137.333 33.9536 135.728 31.4204 132.457 31.4204C129.217 31.4204 126.519 33.9102 126.519 37.5647C126.519 41.0061 129.189 43.7072 132.769 43.7072C135.663 43.7072 137.333 41.9865 138.02 40.9844L135.872 39.5887C135.156 40.6106 134.18 41.2877 132.769 41.2877C131.367 41.2877 130.361 40.6612 129.717 39.4262L138.144 36.0263L137.854 35.3276V35.3276ZM129.261 37.3733C129.189 35.0044 131.148 33.7911 132.552 33.7911C133.652 33.7911 134.585 34.3273 134.896 35.0947L129.261 37.3733V37.3733ZM122.411 43.3334H125.182V25.2779H122.411V43.3334ZM117.874 32.789H117.782C117.159 32.0704 115.972 31.4204 114.469 31.4204C111.313 31.4204 108.428 34.1215 108.428 37.5845C108.428 41.0277 111.313 43.7072 114.469 43.7072C115.972 43.7072 117.159 43.0518 117.782 42.3115H117.874V43.1926C117.874 45.5416 116.587 46.8037 114.511 46.8037C112.819 46.8037 111.769 45.612 111.335 44.61L108.926 45.5904C109.62 47.219 111.459 49.2231 114.511 49.2231C117.759 49.2231 120.5 47.3598 120.5 42.8261V31.7941H117.874V32.789V32.789ZM114.706 41.2877C112.796 41.2877 111.198 39.7295 111.198 37.5845C111.198 35.4197 112.796 33.8398 114.706 33.8398C116.587 33.8398 118.07 35.4197 118.07 37.5845C118.07 39.7295 116.587 41.2877 114.706 41.2877V41.2877ZM150.824 25.2779H144.198V43.3334H146.961V36.4922H150.824C153.893 36.4922 156.902 34.3273 156.902 30.8841C156.902 27.4427 153.885 25.2779 150.824 25.2779V25.2779ZM150.896 33.9806H146.961V27.7894H150.896C152.959 27.7894 154.137 29.4595 154.137 30.8841C154.137 32.2816 152.959 33.9806 150.896 33.9806ZM167.976 31.3861C165.98 31.3861 163.904 32.2455 163.05 34.1504L165.502 35.1525C166.03 34.1504 167 33.8254 168.026 33.8254C169.459 33.8254 170.913 34.665 170.935 36.1473V36.3369C170.435 36.0552 169.365 35.6381 168.048 35.6381C165.407 35.6381 162.717 37.0555 162.717 39.7006C162.717 42.1201 164.88 43.6783 167.311 43.6783C169.17 43.6783 170.196 42.8604 170.841 41.9088H170.935V43.3045H173.604V36.3784C173.604 33.1772 171.152 31.3861 167.976 31.3861ZM167.643 41.2805C166.739 41.2805 165.48 40.8436 165.48 39.7512C165.48 38.3537 167.05 37.8175 168.409 37.8175C169.626 37.8175 170.196 38.0793 170.935 38.4241C170.719 40.0961 169.243 41.2805 167.643 41.2805V41.2805ZM183.326 31.7815L180.15 39.6086H180.056L176.772 31.7815H173.793L178.726 42.7195L175.911 48.8061H178.798L186.4 31.7815H183.326V31.7815ZM158.42 43.3334H161.191V25.2779H158.42V43.3334Z" fill="white"/>
<defs>
<linearGradient id="paint0_linear_19_3598" x1="32.2958" y1="45.1972" x2="8.06236" y2="20.3424" gradientUnits="userSpaceOnUse">
<stop stop-color="#00A0FF"/>
<stop offset="0.0066" stop-color="#00A1FF"/>
<stop offset="0.2601" stop-color="#00BEFF"/>
<stop offset="0.5122" stop-color="#00D2FF"/>
<stop offset="0.7604" stop-color="#00DFFF"/>
<stop offset="1" stop-color="#00E3FF"/>
</linearGradient>
<linearGradient id="paint1_linear_19_3598" x1="50.125" y1="28.887" x2="14.2778" y2="28.887" gradientUnits="userSpaceOnUse">
<stop stop-color="#FFE000"/>
<stop offset="0.4087" stop-color="#FFBD00"/>
<stop offset="0.7754" stop-color="#FFA500"/>
<stop offset="1" stop-color="#FF9C00"/>
</linearGradient>
<linearGradient id="paint2_linear_19_3598" x1="36.7807" y1="25.5724" x2="3.91815" y2="-8.13279" gradientUnits="userSpaceOnUse">
<stop stop-color="#FF3A44"/>
<stop offset="1" stop-color="#C31162"/>
</linearGradient>
<linearGradient id="paint3_linear_19_3598" x1="10.8108" y1="57.5234" x2="25.4854" y2="42.4727" gradientUnits="userSpaceOnUse">
<stop stop-color="#32A071"/>
<stop offset="0.0685" stop-color="#2DA771"/>
<stop offset="0.4762" stop-color="#15CF74"/>
<stop offset="0.8009" stop-color="#06E775"/>
<stop offset="1" stop-color="#00F076"/>
</linearGradient>
</defs>
</svg>
