<svg width="400" height="97" viewBox="0 0 400 97" fill="none" xmlns="http://www.w3.org/2000/svg">
<path d="M116.48 68.9668H145.108V60.344H126.655V27.865H116.48V68.9668Z" fill="#2F234F"/>
<path d="M162.069 63.2181C157.988 63.2181 155.861 59.654 155.861 54.3079C155.861 48.9618 157.988 45.3403 162.069 45.3403C166.151 45.3403 168.335 48.9618 168.335 54.3079C168.335 59.654 166.151 63.2181 162.069 63.2181ZM162.127 69.8864C171.612 69.8864 177.82 63.1606 177.82 54.3079C177.82 45.4552 171.612 38.7295 162.127 38.7295C152.699 38.7295 146.376 45.4552 146.376 54.3079C146.376 63.1606 152.699 69.8864 162.127 69.8864Z" fill="#2F234F"/>
<path d="M194.238 79.1416C198.607 79.1416 202.458 78.1643 205.045 75.8649C207.402 73.738 208.954 70.5188 208.954 66.0925V39.5344H199.986V42.6961H199.871C198.147 40.2242 195.503 38.6721 191.594 38.6721C184.293 38.6721 179.234 44.7655 179.234 53.3883C179.234 62.4134 185.385 67.3571 191.996 67.3571C195.56 67.3571 197.802 65.92 199.527 63.9655H199.757V66.8973C199.757 70.4613 198.089 72.5308 194.123 72.5308C191.019 72.5308 189.467 71.2086 188.949 69.6566H179.867C180.786 75.8074 186.133 79.1416 194.238 79.1416ZM194.18 60.4015C190.674 60.4015 188.374 57.5272 188.374 53.1009C188.374 48.617 190.674 45.7428 194.18 45.7428C198.089 45.7428 200.159 49.0769 200.159 53.0434C200.159 57.1823 198.262 60.4015 194.18 60.4015Z" fill="#2F234F"/>
<path d="M227.393 63.2181C223.312 63.2181 221.185 59.654 221.185 54.3079C221.185 48.9618 223.312 45.3403 227.393 45.3403C231.475 45.3403 233.659 48.9618 233.659 54.3079C233.659 59.654 231.475 63.2181 227.393 63.2181ZM227.451 69.8864C236.936 69.8864 243.145 63.1606 243.145 54.3079C243.145 45.4552 236.936 38.7295 227.451 38.7295C218.023 38.7295 211.7 45.4552 211.7 54.3079C211.7 63.1606 218.023 69.8864 227.451 69.8864Z" fill="#2F234F"/>
<path d="M245.88 68.9668H255.25V39.5345H245.88V68.9668ZM245.88 35.453H255.25V27.865H245.88V35.453Z" fill="#2F234F"/>
<path d="M259.315 78.6817H268.685V65.92H268.8C270.639 68.3919 273.341 69.8865 277.135 69.8865C284.838 69.8865 289.954 63.7931 289.954 54.2506C289.954 45.3979 285.183 38.6721 277.365 38.6721C273.341 38.6721 270.467 40.4542 268.455 43.0985H268.283V39.5344H259.315V78.6817ZM274.721 62.6434C270.697 62.6434 268.398 59.3667 268.398 54.5955C268.398 49.8242 270.467 46.2027 274.548 46.2027C278.572 46.2027 280.469 49.5368 280.469 54.5955C280.469 59.5967 278.285 62.6434 274.721 62.6434Z" fill="#2F234F"/>
<path d="M305.212 69.8865C312.915 69.8865 318.606 66.5524 318.606 60.114C318.606 52.5835 312.513 51.2613 307.339 50.3991C303.603 49.7092 300.269 49.4218 300.269 47.3524C300.269 45.5128 302.051 44.6506 304.35 44.6506C306.937 44.6506 308.719 45.4554 309.064 48.0997H317.686C317.227 42.2937 312.743 38.6721 304.407 38.6721C297.452 38.6721 291.703 41.8913 291.703 48.0997C291.703 54.9979 297.164 56.3775 302.28 57.2398C306.189 57.9296 309.754 58.217 309.754 60.8613C309.754 62.7583 307.972 63.7931 305.155 63.7931C302.051 63.7931 300.096 62.356 299.751 59.4242H290.898C291.186 65.92 296.589 69.8865 305.212 69.8865Z" fill="#2F234F"/>
<path d="M331.332 69.829C335.413 69.829 338 68.2195 340.127 65.3452H340.299V68.9668H349.267V39.5344H339.897V55.9751C339.897 59.4817 337.942 61.8961 334.723 61.8961C331.734 61.8961 330.297 60.1141 330.297 56.8949V39.5344H320.984V58.8494C320.984 65.4027 324.548 69.829 331.332 69.829Z" fill="#2F234F"/>
<path d="M353.344 68.9667H362.714V52.4685C362.714 48.9619 364.438 46.4901 367.37 46.4901C370.187 46.4901 371.509 48.3296 371.509 51.4913V68.9667H380.879V52.4685C380.879 48.9619 382.546 46.4901 385.535 46.4901C388.352 46.4901 389.674 48.3296 389.674 51.4913V68.9667H399.044V49.8242C399.044 43.2134 395.71 38.6721 389.042 38.6721C385.248 38.6721 382.086 40.2817 379.787 43.8458H379.672C378.177 40.6841 375.246 38.6721 371.394 38.6721C367.14 38.6721 364.323 40.6841 362.484 43.7308H362.311V39.5344H353.344V68.9667Z" fill="#2F234F"/>
<path fill-rule="evenodd" clip-rule="evenodd" d="M20.7287 9.32101C17.302 11.7171 14.2033 14.55 11.5134 17.739C22.5057 16.7185 36.4711 18.3849 52.6847 26.4918C69.9988 35.1486 83.9408 35.4413 93.6438 33.5697C92.7633 30.904 91.6548 28.3421 90.342 25.9067C79.2347 27.0782 64.9952 25.5275 48.4002 17.2303C37.8622 11.9613 28.5731 9.79081 20.7287 9.32101ZM83.8536 16.6714C75.0821 6.87102 62.335 0.703369 48.1473 0.703369C43.9808 0.703369 39.9382 1.23536 36.0843 2.23506C41.3039 3.65926 46.8488 5.74285 52.6847 8.66089C64.8347 14.7358 75.3243 16.6918 83.8536 16.6714ZM95.7183 42.9263C83.9961 45.241 67.8091 44.7656 48.4002 35.0612C30.255 25.9886 15.8131 26.1028 6.07287 28.2674C5.57011 28.379 5.07919 28.4964 4.60012 28.6185C3.32489 31.3919 2.30696 34.3083 1.57658 37.3368C2.35666 37.1285 3.16276 36.9304 3.99445 36.7455C15.811 34.1196 32.5068 34.2336 52.6847 44.3227C70.8301 53.3953 85.272 53.281 95.0124 51.1165C95.3461 51.0425 95.6749 50.9658 95.9983 50.8868C96.0337 50.1316 96.0514 49.3716 96.0514 48.6075C96.0514 46.6853 95.9384 44.7895 95.7183 42.9263ZM94.4342 60.9962C82.8258 63.0257 67.1101 62.2468 48.4002 52.8921C30.255 43.8195 15.8131 43.9337 6.07287 46.0983C3.91083 46.5785 1.96589 47.1637 0.250182 47.7814C0.245504 48.0561 0.243164 48.3316 0.243164 48.6075C0.243164 75.0643 21.6906 96.5117 48.1473 96.5117C70.32 96.5117 88.9743 81.448 94.4342 60.9962Z" fill="#4540D9"/>
</svg>
